<svg width="38" height="38" viewBox="0 0 62 62" fill="none" xmlns="http://www.w3.org/2000/svg">
<circle cx="31" cy="31" r="31" fill="#09B850"/>
<path d="M48.3844 33.2596C47.0282 33.2596 45.9289 32.1602 45.9289 30.8041C45.9289 29.448 47.0282 28.3486 48.3844 28.3486C49.7405 28.3486 50.8398 29.448 50.8398 30.8041C50.8398 32.1602 49.7405 33.2596 48.3844 33.2596Z" fill="white"/>
<path d="M13.0247 35.3357H13.3685C14.2034 35.3357 14.8418 34.6972 14.8418 33.8624V27.7458C14.8418 26.9109 14.2034 26.2725 13.3685 26.2725H13.0247C12.1899 26.2725 11.5514 26.9109 11.5514 27.7458V33.9115C11.5514 34.6972 12.1899 35.3357 13.0247 35.3357Z" fill="white"/>
<path d="M19.5579 41.916H19.9017C20.7366 41.916 21.375 41.2776 21.375 40.4427V21.1647C21.375 20.3298 20.7366 19.6914 19.9017 19.6914H19.5579C18.7231 19.6914 18.0846 20.3298 18.0846 21.1647V40.3936C18.0846 41.2285 18.7722 41.916 19.5579 41.916Z" fill="white"/>
<path d="M26.138 37.715H26.4818C27.3167 37.715 27.9551 37.0766 27.9551 36.2417V25.3664C27.9551 24.5315 27.3167 23.8931 26.4818 23.8931H26.138C25.3032 23.8931 24.6647 24.5315 24.6647 25.3664V36.2417C24.6647 37.0766 25.3032 37.715 26.138 37.715Z" fill="white"/>
<path d="M44.3083 31.0987C44.0137 32.1265 43.377 32.714 42.593 32.8413C42.1519 32.9295 41.7599 33.2233 41.5835 33.6153L35.8301 46.5149C35.6146 46.9751 35.1444 47.2688 34.6351 47.2688H33.9493C33.2144 47.2688 32.646 46.7004 32.646 45.9656V16.0334C32.646 15.2986 33.2144 14.7302 33.9493 14.7302H34.6842C35.1935 14.7302 35.6637 15.0239 35.8792 15.4841L41.6326 28.4328C41.8091 28.8739 42.201 29.1186 42.6421 29.2068C43.4261 29.3832 44.0628 29.9517 44.3574 30.9794C44.3574 31.1558 44.3574 31.3323 44.3083 31.0987ZM39.3571 30.7147L36.6141 24.1027C36.4086 23.5643 35.5864 23.7307 35.5864 24.3183V37.2107C35.5864 37.7983 36.4086 37.9647 36.6141 37.4263L39.3571 30.8143C39.4845 30.5205 39.4845 30.1876 39.3571 30.7147Z" fill="white"/>
</svg>